<svg width="26" height="26" viewBox="0 0 26 26" fill="none" xmlns="http://www.w3.org/2000/svg">
<path d="M17.875 7.3125H23.5625V13" stroke="none" stroke-width="2" stroke-linecap="round" stroke-linejoin="round"/>
<path d="M2.4375 18.6875L8.60082 12.5242C8.75172 12.3732 8.93088 12.2535 9.12805 12.1718C9.32523 12.0901 9.53657 12.0481 9.75 12.0481C9.96343 12.0481 10.1748 12.0901 10.3719 12.1718C10.5691 12.2535 10.7483 12.3732 10.8992 12.5242L13.4758 15.1008C13.6267 15.2518 13.8059 15.3715 14.0031 15.4532C14.2002 15.5349 14.4116 15.5769 14.625 15.5769C14.8384 15.5769 15.0498 15.5349 15.2469 15.4532C15.4441 15.3715 15.6233 15.2518 15.7742 15.1008L22.75 8.125" stroke="none" stroke-width="2" stroke-linecap="round" stroke-linejoin="round"/>
</svg>
